<svg width="45" height="45" fill="#ff6600" viewBox="0 0 24 24" xmlns="http://www.w3.org/2000/svg">
   <path fill-rule="evenodd" d="M19.816 7.2H8.985a3 3 0 0 0-2.925 3.667l1.096 4.8A3 3 0 0 0 10.081 18h8.639a3 3 0 0 0 2.925-2.332l1.096-4.8A3.002 3.002 0 0 0 19.816 7.2ZM8.85 9.613a.6.6 0 0 1 .134-.015h10.83a.6.6 0 0 1 .586.734l-1.096 4.8a.6.6 0 0 1-.585.466H10.08a.6.6 0 0 1-.585-.466l-1.096-4.8a.6.6 0 0 1 .451-.719Z" clip-rule="evenodd"></path>
   <path d="M4.188 2.4H2.399a1.2 1.2 0 0 1 0-2.4h2.748a1.2 1.2 0 0 1 1.17.936l3.253 14.4a1.2 1.2 0 1 1-2.341.528L4.188 2.4Z"></path>
   <path d="M12 20.7a2.1 2.1 0 1 1-4.2 0 2.1 2.1 0 0 1 4.2 0Z"></path>
   <path d="M20.4 20.7a2.1 2.1 0 1 1-4.2 0 2.1 2.1 0 0 1 4.2 0Z"></path>
</svg>