<?xml version="1.0" encoding="UTF-8"?>
<svg xmlns="http://www.w3.org/2000/svg" xmlns:xlink="http://www.w3.org/1999/xlink" viewBox="0 0 48 48" width="48px" height="48px">
<g id="surface54862571">
<path style=" stroke:none;fill-rule:nonzero;fill:rgb(100%,40.000001%,0%);fill-opacity:1;" d="M 24 4 C 13 4 4 13 4 24 C 4 35 13 44 24 44 C 35 44 44 35 44 24 C 44 13 35 4 24 4 Z M 32.113281 32.8125 C 31.738281 32.8125 31.550781 32.625 31.175781 32.4375 C 28.351562 30.742188 24.777344 29.800781 21.015625 29.800781 C 18.945312 29.800781 16.691406 30.179688 14.808594 30.554688 C 14.433594 30.554688 14.054688 30.742188 13.867188 30.742188 C 13.117188 30.742188 12.550781 30.179688 12.550781 29.425781 C 12.550781 28.675781 12.929688 28.109375 13.679688 28.109375 C 16.125 27.546875 18.570312 27.171875 21.207031 27.171875 C 25.53125 27.171875 29.484375 28.296875 32.871094 30.179688 C 33.246094 30.554688 33.621094 30.742188 33.621094 31.496094 C 33.242188 32.4375 32.679688 32.8125 32.113281 32.8125 Z M 34.183594 27.546875 C 33.804688 27.546875 33.429688 27.359375 33.054688 27.171875 C 29.855469 25.101562 25.339844 23.972656 20.449219 23.972656 C 18.003906 23.972656 15.746094 24.347656 14.054688 24.722656 C 13.679688 24.910156 13.488281 24.910156 13.113281 24.910156 C 12.175781 24.910156 11.609375 24.160156 11.609375 23.40625 C 11.609375 22.464844 11.984375 22.089844 12.925781 21.710938 C 15.183594 21.148438 17.441406 20.585938 20.636719 20.585938 C 25.90625 20.585938 30.796875 21.898438 34.9375 24.347656 C 35.5 24.722656 35.875 25.285156 35.875 25.851562 C 35.6875 26.792969 35.125 27.546875 34.183594 27.546875 Z M 36.628906 21.523438 C 36.253906 21.523438 36.0625 21.335938 35.5 21.148438 C 31.738281 19.078125 26.28125 17.761719 21.015625 17.761719 C 18.378906 17.761719 15.558594 18.136719 13.113281 18.703125 C 12.734375 18.703125 12.546875 18.890625 11.984375 18.890625 C 10.855469 19.078125 10.101562 18.136719 10.101562 17.011719 C 10.101562 15.882812 10.664062 15.316406 11.417969 15.128906 C 14.429688 14.375 17.628906 14 21.015625 14 C 26.847656 14 32.867188 15.316406 37.570312 17.761719 C 38.132812 18.136719 38.699219 18.703125 38.699219 19.644531 C 38.511719 20.773438 37.757812 21.523438 36.628906 21.523438 Z M 36.628906 21.523438 "/>
</g>
</svg>
